<svg xmlns="http://www.w3.org/2000/svg" version="1.1" xmlns:xlink="http://www.w3.org/1999/xlink" xmlns:svgjs="http://svgjs.dev/svgjs" width="1440" height="560" preserveAspectRatio="none" viewBox="0 0 1440 560"><g mask="url(&quot;#SvgjsMask1005&quot;)" fill="none"><rect width="1440" height="560" x="0" y="0" fill="#0e2a47"></rect><path d="M698.95 145.36a43.11 43.11 0 1 0 37.97 77.41z" fill="#e73635"></path><path d="M883.14 340.89a17.32 17.32 0 1 0 25.06 23.92z" stroke="#d3b714"></path><path d="M1042.51 502.1 a19.43 19.43 0 1 0 38.86 0 a19.43 19.43 0 1 0 -38.86 0z" fill="#037b0b"></path><path d="M1140.92 23.12a7.31 7.31 0 1 0-14.6-0.66z" fill="#e73635"></path><path d="M300.46 439.36L325.1 439.36L325.1 464.97L300.46 464.97z" fill="#e73635"></path><path d="M99.19 131.91a5.03 5.03 0 1 0 8.36 5.58z" stroke="#e73635"></path><path d="M655.32 80.02L705.01 80.02L705.01 129.71L655.32 129.71z" stroke="#037b0b"></path><path d="M1378.81 287.65L1401.75 287.65L1401.75 341.37L1378.81 341.37z" fill="#037b0b"></path><path d="M541.11 483.71a33.68 33.68 0 1 0-53.34 41.14z" stroke="#d3b714"></path><path d="M1169.68 461.44L1213.7 461.44L1213.7 505.46L1169.68 505.46z" stroke="#037b0b"></path><path d="M506.14 139.34a28.32 28.32 0 1 0-55.69-10.32z" stroke="#e73635"></path><path d="M894.62 330.42L950.04 330.42L950.04 385.25L894.62 385.25z" fill="#e73635"></path><path d="M1242.92 122.68L1296.85 122.68L1296.85 176.61L1242.92 176.61z" stroke="#e73635"></path><path d="M1115.21-27.41a38.32 38.32 0 1 0 18.05 74.49z" stroke="#037b0b"></path><path d="M1380.55 504.38a35.56 35.56 0 1 0 20.03-68.24z" fill="#d3b714"></path><path d="M1135.98 14.89L1191.84 14.89L1191.84 70.75L1135.98 70.75z" fill="#d3b714"></path><path d="M126.13 225.48L146.53 225.48L146.53 256.21L126.13 256.21z" stroke="#037b0b"></path><path d="M1190.84 278.38 a23.66 23.66 0 1 0 47.32 0 a23.66 23.66 0 1 0 -47.32 0z" fill="#037b0b"></path><path d="M652.59 296.73a40.82 40.82 0 1 0 71.36-39.67z" fill="#e73635"></path><path d="M267.96 313.02a6.68 6.68 0 1 0 6.11-11.88z" stroke="#e73635"></path><path d="M277.52 134.33L327.39 134.33L327.39 177.52L277.52 177.52z" fill="#d3b714"></path><path d="M743.51 113.81L789.39 113.81L789.39 138.56L743.51 138.56z" fill="#e73635"></path><path d="M1359.77 498.95L1361.71 498.95L1361.71 500.89L1359.77 500.89z" stroke="#e73635"></path><path d="M1.72 274.76L2.11 274.76L2.11 322.87L1.72 322.87z" stroke="#e73635"></path><path d="M63.29 530.4 a3.42 3.42 0 1 0 6.84 0 a3.42 3.42 0 1 0 -6.84 0z" stroke="#d3b714"></path><path d="M516.61 472.61 a13.42 13.42 0 1 0 26.84 0 a13.42 13.42 0 1 0 -26.84 0z" fill="#037b0b"></path><path d="M896.61 103.69a13.28 13.28 0 1 0 2.56-26.43z" fill="#d3b714"></path><path d="M597.12 49.51L627.37 49.51L627.37 79.76L597.12 79.76z" stroke="#037b0b"></path><path d="M1304.96 157.56L1332.39 157.56L1332.39 191.24L1304.96 191.24z" fill="#d3b714"></path><path d="M146.09 126.97 a24.01 24.01 0 1 0 48.02 0 a24.01 24.01 0 1 0 -48.02 0z" fill="#d3b714"></path><path d="M1327.14 471.32L1358.87 471.32L1358.87 472.05L1327.14 472.05z" stroke="#e73635"></path><path d="M535.26 184.41 a49.25 49.25 0 1 0 98.5 0 a49.25 49.25 0 1 0 -98.5 0z" stroke="#037b0b"></path><path d="M1117.1 355.28 a27.43 27.43 0 1 0 54.86 0 a27.43 27.43 0 1 0 -54.86 0z" fill="#e73635"></path></g><defs><mask id="SvgjsMask1005"><rect width="1440" height="560" fill="#ffffff"></rect></mask></defs></svg>